<svg xmlns="http://www.w3.org/2000/svg" width="400" height="300" viewBox="0 0 400 300"><rect width="100%" height="100%" fill="#DDDDDD"/><path fill="#999999" d="M85.865 115.835v23.86h-4.45v-23.86zm8.76 23.86h-4.07v-16.93h2.49q.79 0 1.04.74l.26 1.26q.45-.5.93-.91.49-.41 1.04-.71.56-.3 1.19-.47.64-.17 1.4-.17 1.6 0 2.63.86 1.03.87 1.54 2.3.4-.84.99-1.44t1.3-.98 1.51-.56 1.61-.18q1.41 0 2.49.43 1.09.42 1.84 1.25.74.82 1.13 2.01.38 1.19.38 2.73v10.77h-4.07v-10.77q0-1.62-.71-2.44t-2.08-.82q-.63 0-1.16.22-.54.21-.94.62-.41.4-.64 1.01t-.23 1.41v10.77h-4.09v-10.77q0-1.7-.69-2.48-.68-.78-2-.78-.89 0-1.66.44t-1.43 1.2zm32.51-4.37v-2.86q-1.77.09-2.97.31-1.21.22-1.93.57-.73.34-1.04.81-.32.46-.32 1 0 1.07.64 1.54.63.46 1.66.46 1.25 0 2.17-.45.91-.46 1.79-1.38m-8.62-8.9-.72-1.3q2.92-2.67 7.03-2.67 1.48 0 2.65.48 1.18.49 1.98 1.36.81.86 1.23 2.07.42 1.2.42 2.64v10.69h-1.84q-.58 0-.89-.17-.32-.18-.5-.7l-.36-1.23q-.65.58-1.26 1.02t-1.27.73q-.66.3-1.41.46-.75.15-1.66.15-1.07 0-1.98-.28-.9-.29-1.56-.87t-1.03-1.44q-.36-.85-.36-1.99 0-.65.21-1.28.22-.64.71-1.21.48-.58 1.26-1.09.77-.52 1.9-.89 1.13-.38 2.64-.62 1.5-.24 3.43-.29v-.99q0-1.7-.73-2.52-.72-.82-2.09-.82-.99 0-1.65.24-.65.23-1.14.52-.5.28-.9.52-.41.23-.9.23-.43 0-.73-.23-.29-.22-.48-.52m22.61 4.39q.76 0 1.32-.2.56-.21.93-.57.37-.37.56-.88t.19-1.12q0-1.25-.75-1.99-.75-.73-2.25-.73t-2.25.73q-.75.74-.75 1.99 0 .6.19 1.11t.56.88.94.58q.57.2 1.31.2m4.6 9.64q0-.5-.29-.81-.3-.31-.81-.49-.51-.17-1.2-.25-.68-.08-1.45-.13-.77-.04-1.58-.07-.82-.03-1.6-.13-.67.38-1.09.89t-.42 1.19q0 .44.22.83t.71.67q.48.28 1.26.44.78.15 1.9.15 1.14 0 1.96-.17.83-.17 1.36-.48.54-.3.79-.73.24-.42.24-.91m-.81-17.11h4.87v1.52q0 .72-.87.89l-1.52.28q.35.87.35 1.91 0 1.26-.51 2.27-.5 1.02-1.39 1.72-.89.71-2.1 1.1-1.22.39-2.62.39-.5 0-.96-.05t-.9-.13q-.8.48-.8 1.07 0 .51.47.75t1.25.34q.77.1 1.76.12.99.03 2.03.11t2.03.29 1.77.65q.77.45 1.25 1.21.47.77.47 1.98 0 1.12-.56 2.17-.55 1.06-1.6 1.89-1.05.82-2.57 1.32-1.53.51-3.48.51-1.91 0-3.33-.37-1.42-.38-2.36-.99-.94-.62-1.4-1.43t-.46-1.68q0-1.19.72-1.99.71-.8 1.97-1.28-.68-.35-1.08-.93-.39-.57-.39-1.51 0-.38.14-.79.14-.4.41-.8.27-.39.69-.75.41-.35.97-.63-1.29-.7-2.02-1.85-.74-1.16-.74-2.71 0-1.25.51-2.27.5-1.01 1.4-1.73t2.13-1.1 2.68-.38q1.09 0 2.05.23.95.22 1.74.65m10.66 5.94h7.69q0-.79-.22-1.49-.22-.71-.67-1.23-.44-.53-1.13-.84-.68-.3-1.59-.3-1.77 0-2.78 1-1.02 1.01-1.3 2.86m10.4 2.46h-10.48q.1 1.3.46 2.25.37.95.96 1.57t1.41.92q.82.31 1.81.31t1.71-.24q.71-.23 1.25-.51t.94-.51.78-.23q.52 0 .76.38l1.17 1.49q-.67.79-1.51 1.32-.85.54-1.76.86-.92.32-1.87.46-.94.13-1.84.13-1.76 0-3.28-.59-1.52-.58-2.64-1.73t-1.76-2.84q-.65-1.69-.65-3.92 0-1.73.56-3.26.56-1.52 1.61-2.65t2.56-1.79 3.41-.66q1.6 0 2.95.51t2.33 1.49q.97.98 1.52 2.41.56 1.43.56 3.26 0 .92-.2 1.25-.2.32-.76.32m15.56-8.24.28 1.34q.51-.51 1.08-.95t1.2-.74q.64-.31 1.37-.48.72-.17 1.58-.17 1.39 0 2.46.47t1.79 1.32 1.09 2.03.37 2.6v10.77h-4.08v-10.77q0-1.56-.71-2.41t-2.16-.85q-1.05 0-1.98.48-.92.48-1.75 1.31v12.24h-4.07v-16.93h2.49q.79 0 1.04.74m22.57-1q1.88 0 3.42.61 1.55.61 2.64 1.73 1.1 1.12 1.7 2.74.59 1.62.59 3.61 0 2.02-.59 3.63-.6 1.62-1.7 2.76-1.09 1.14-2.64 1.75-1.54.61-3.42.61-1.9 0-3.45-.61t-2.65-1.75q-1.09-1.14-1.7-2.76-.6-1.61-.6-3.63 0-1.99.6-3.61.61-1.62 1.7-2.74 1.1-1.12 2.65-1.73t3.45-.61m0 14.3q2.11 0 3.13-1.42 1.01-1.42 1.01-4.15 0-2.74-1.01-4.18-1.02-1.43-3.13-1.43-2.14 0-3.18 1.44-1.03 1.44-1.03 4.17 0 2.72 1.03 4.15 1.04 1.42 3.18 1.42m17.11 3.15q-2.21 0-3.39-1.24-1.18-1.25-1.18-3.44v-9.46h-1.73q-.33 0-.56-.21-.23-.22-.23-.64v-1.62l2.72-.45.86-4.62q.08-.33.31-.51t.59-.18h2.12v5.33h4.52v2.9h-4.52v9.18q0 .79.38 1.23.39.45 1.07.45.38 0 .63-.09.26-.09.45-.19t.34-.19.29-.09q.19 0 .3.09.12.09.25.27l1.22 1.98q-.89.75-2.05 1.12-1.15.38-2.39.38m19.92-.26h-4.08v-13.86l-1.47-.23q-.48-.1-.76-.34-.29-.24-.29-.68v-1.67h2.52v-1.25q0-1.46.44-2.61.44-1.16 1.25-1.97.82-.8 1.99-1.23t2.64-.43q1.17 0 2.18.31l-.08 2.05q-.02.23-.14.37-.11.14-.3.21-.19.08-.44.1-.25.03-.53.03-.72 0-1.29.15-.57.16-.97.55-.39.39-.6 1.02-.21.64-.21 1.58v1.12h4.41v2.9h-4.27zm14.05-17.19q1.89 0 3.43.61t2.64 1.73 1.69 2.74.59 3.61q0 2.02-.59 3.63-.59 1.62-1.69 2.76t-2.64 1.75-3.43.61-3.44-.61q-1.56-.61-2.65-1.75-1.1-1.14-1.7-2.76-.6-1.61-.6-3.63 0-1.99.6-3.61t1.7-2.74q1.09-1.12 2.65-1.73 1.55-.61 3.44-.61m0 14.3q2.12 0 3.13-1.42 1.02-1.42 1.02-4.15 0-2.74-1.02-4.18-1.01-1.43-3.13-1.43-2.14 0-3.17 1.44t-1.03 4.17q0 2.72 1.03 4.15 1.03 1.42 3.17 1.42m21.98-14.04h4.08v16.93h-2.49q-.81 0-1.03-.74l-.28-1.36q-1.04 1.06-2.29 1.71t-2.95.65q-1.39 0-2.45-.47-1.07-.47-1.79-1.32-.73-.86-1.1-2.04t-.37-2.6v-10.76h4.07v10.76q0 1.55.72 2.4t2.15.85q1.06 0 1.98-.47.93-.47 1.75-1.3zm11.63.74.29 1.34q.51-.51 1.08-.95t1.2-.74q.64-.31 1.36-.48.73-.17 1.59-.17 1.38 0 2.45.47 1.08.47 1.79 1.32.72.85 1.09 2.03t.37 2.6v10.77h-4.07v-10.77q0-1.56-.71-2.41t-2.16-.85q-1.06 0-1.98.48-.93.48-1.75 1.31v12.24h-4.08v-16.93h2.5q.79 0 1.03.74m25.71 11.17v-7.59q-.69-.84-1.51-1.18-.81-.35-1.76-.35-.92 0-1.66.35-.74.34-1.27 1.04-.53.71-.81 1.79t-.28 2.54q0 1.49.24 2.52t.68 1.68q.45.66 1.09.94.65.29 1.44.29 1.27 0 2.16-.52.89-.53 1.68-1.51m0-19.5h4.08v24.52h-2.49q-.81 0-1.03-.74l-.34-1.64q-1.03 1.18-2.36 1.9-1.32.73-3.09.73-1.38 0-2.54-.58-1.15-.58-1.99-1.67-.83-1.1-1.29-2.72-.45-1.62-.45-3.7 0-1.88.51-3.49.51-1.62 1.47-2.81t2.29-1.85q1.34-.67 3.01-.67 1.42 0 2.42.44 1.01.45 1.8 1.21zm-142.54 42.5-1.11 2.1q-.2.35-.42.5-.22.16-.55.16-.35 0-.75-.26-.41-.25-.97-.56-.56-.32-1.31-.57-.75-.26-1.77-.26-.93 0-1.62.22-.69.23-1.16.62-.47.4-.7.95t-.23 1.21q0 .85.47 1.41t1.24.95q.78.4 1.77.71.99.32 2.03.67 1.04.36 2.03.83t1.76 1.18q.78.72 1.25 1.76t.47 2.53q0 1.61-.56 3.02-.55 1.41-1.61 2.46-1.07 1.05-2.6 1.65-1.54.6-3.52.6-1.13 0-2.24-.22t-2.12-.63q-1.01-.42-1.91-.99-.89-.58-1.58-1.29l1.3-2.13q.17-.23.43-.39.27-.15.56-.15.42 0 .89.33.48.34 1.14.76.66.41 1.55.75.88.33 2.12.33 1.89 0 2.93-.9 1.04-.89 1.04-2.58 0-.94-.47-1.53-.47-.6-1.24-1-.78-.4-1.77-.68-.99-.29-2.01-.62t-2.01-.79-1.77-1.2-1.25-1.86q-.47-1.11-.47-2.75 0-1.3.52-2.54.52-1.23 1.51-2.19t2.45-1.54q1.45-.57 3.33-.57 2.11 0 3.89.66t3.04 1.84m11.14 4.43q1.88 0 3.42.61t2.64 1.73 1.69 2.74.59 3.61q0 2.02-.59 3.63-.59 1.62-1.69 2.76t-2.64 1.75-3.42.61q-1.9 0-3.45-.61t-2.65-1.75-1.7-2.76q-.6-1.61-.6-3.63 0-1.99.6-3.61t1.7-2.74 2.65-1.73 3.45-.61m0 14.3q2.11 0 3.12-1.42 1.02-1.42 1.02-4.15 0-2.74-1.02-4.18-1.01-1.43-3.12-1.43-2.15 0-3.18 1.44t-1.03 4.17q0 2.72 1.03 4.15 1.03 1.42 3.18 1.42m15.06-13.02.25 1.92q.79-1.52 1.88-2.39 1.09-.86 2.57-.86 1.17 0 1.88.51l-.26 3.05q-.08.3-.24.42-.16.13-.42.13-.25 0-.73-.09-.49-.08-.95-.08-.68 0-1.21.2t-.95.57-.74.9-.6 1.2v10.43h-4.08v-16.93h2.4q.62 0 .87.22.25.23.33.8m12.31 0 .25 1.92q.79-1.52 1.88-2.39 1.09-.86 2.57-.86 1.17 0 1.88.51l-.26 3.05q-.08.3-.24.42-.16.13-.42.13-.25 0-.74-.09-.48-.08-.94-.08-.68 0-1.21.2t-.95.57-.74.9-.6 1.2v10.43h-4.08v-16.93h2.39q.63 0 .88.22.25.23.33.8m20.82-1.02h3.27l-9.22 21.58q-.19.43-.47.65-.29.23-.89.23h-3.03l3.16-6.8-6.84-15.66h3.58q.48 0 .75.23t.4.53l3.6 8.78q.18.44.31.89.12.44.23.91.15-.47.3-.92t.33-.9l3.4-8.76q.13-.33.44-.54.3-.22.68-.22m6.02-6.93h3.83v9.44q0 1.5-.15 2.94-.14 1.45-.38 3.07h-2.77q-.23-1.62-.38-3.07-.15-1.44-.15-2.94zm-.64 21.62q0-.52.19-.98t.53-.79.8-.53.99-.2q.51 0 .97.2t.8.53.54.79.2.98-.2.98q-.2.45-.54.78t-.8.52-.97.19q-.53 0-.99-.19t-.8-.52-.53-.78q-.19-.46-.19-.98"/></svg>